<?xml version="1.0" standalone="no"?>
<!DOCTYPE svg PUBLIC "-//W3C//DTD SVG 20010904//EN"
 "http://www.w3.org/TR/2001/REC-SVG-20010904/DTD/svg10.dtd">
<svg version="1.0" xmlns="http://www.w3.org/2000/svg"
 width="100.000000pt" height="100.000000pt" viewBox="0 0 100.000000 100.000000"
 preserveAspectRatio="xMidYMid meet">
<metadata>
Created by potrace 1.11, written by Peter Selinger 2001-2013
</metadata>
<g transform="translate(0.000000,100.000000) scale(0.100000,-0.100000)"
fill="#000000" stroke="none">
<path d="M152 993 c-37 -15 -39 -46 -38 -495 l1 -437 23 -23 c22 -22 25 -23
293 -23 149 0 276 3 282 7 7 4 45 40 85 80 l72 73 0 137 c0 75 -3 143 -6 152
-3 8 -30 33 -60 56 l-53 40 22 43 c20 36 23 56 21 128 -1 46 -2 91 -3 99 -1
16 -88 110 -135 148 -28 21 -35 22 -260 21 -127 0 -237 -3 -244 -6z m458 -178
c29 -30 35 -43 35 -82 1 -31 -6 -56 -20 -77 l-21 -31 -167 -3 c-154 -2 -167
-1 -168 15 -4 54 -4 190 -1 201 3 9 43 12 156 12 l152 0 34 -35z m57 -382 l53
-36 0 -82 c0 -79 -1 -82 -34 -114 l-33 -32 -192 -2 c-163 -2 -191 0 -192 13
-4 42 -4 267 -1 278 3 9 47 12 175 12 l171 0 53 -37z"/>
</g>
</svg>
